<?xml version="1.0" encoding="utf-8"?>
<!-- Generator: Adobe Illustrator 26.3.1, SVG Export Plug-In . SVG Version: 6.00 Build 0)  -->
<svg version="1.1" id="Layer_1" xmlns="http://www.w3.org/2000/svg" xmlns:xlink="http://www.w3.org/1999/xlink" x="0px" y="0px"
	 viewBox="0 0 1215 212" style="enable-background:new 0 0 1215 212;" xml:space="preserve">
<style type="text/css">
	.st0{fill:#FFFFFF;}
</style>
<g>
	<g>
		<g>
			<g>
				<path class="st0" d="M138.04,175.66H48.35v-24.12h89.68c12.71,0,23.45-7.71,23.45-16.84V99h24.12v35.7
					C185.61,157.29,164.27,175.66,138.04,175.66z"/>
			</g>
		</g>
		<g>
			<g>
				<path class="st0" d="M71.91,98.39H47.79V64.1c0-26.23,21.34-47.58,47.57-47.58h90.47v24.12H95.36
					c-12.93,0-23.45,10.52-23.45,23.45V98.39z"/>
			</g>
		</g>
		<rect x="106.57" y="57.78" class="st0" width="24.12" height="76.5"/>
	</g>
	<g>
		<g>
			<path class="st0" d="M311.25,49.61v20.03h-25.99v82.6h-23.89v-82.6h-25.99V49.61H311.25z"/>
			<path class="st0" d="M392.71,79.07c5.4,6.19,8.11,14.69,8.11,25.51v47.66h-23.75v-44.3c0-5.46-1.36-9.7-4.06-12.72
				c-2.7-3.02-6.34-4.53-10.9-4.53s-8.2,1.51-10.9,4.53c-2.7,3.02-4.05,7.26-4.05,12.72v44.3h-23.9V44.05h23.9v37.57
				c2.42-3.61,5.73-6.48,9.92-8.63c4.19-2.14,8.89-3.22,14.11-3.22C380.14,69.78,387.31,72.87,392.71,79.07z"/>
			<path class="st0" d="M490.53,117.44h-54.08c0.37,5.07,1.93,8.94,4.68,11.62c2.74,2.68,6.12,4.02,10.13,4.02
				c5.96,0,10.11-2.64,12.43-7.9h25.43c-1.3,5.37-3.66,10.19-7.06,14.47c-3.4,4.3-7.66,7.66-12.78,10.09
				c-5.13,2.44-10.86,3.66-17.19,3.66c-7.64,0-14.44-1.71-20.41-5.12c-5.96-3.41-10.62-8.28-13.97-14.62
				c-3.35-6.34-5.03-13.74-5.03-22.23c0-8.48,1.65-15.88,4.96-22.22c3.3-6.34,7.94-11.21,13.9-14.62
				c5.96-3.41,12.81-5.12,20.54-5.12c7.54,0,14.25,1.66,20.12,4.97s10.46,8.04,13.77,14.18c3.3,6.15,4.96,13.31,4.96,21.49
				C490.95,112.47,490.81,114.91,490.53,117.44z M466.5,103.55c0-4.29-1.4-7.7-4.19-10.23c-2.79-2.53-6.29-3.8-10.48-3.8
				c-4.01,0-7.39,1.22-10.13,3.65c-2.75,2.44-4.45,5.9-5.1,10.38H466.5z"/>
			<path class="st0" d="M549.35,149.61c-5.68-2.44-10.23-6.04-13.62-10.82c-3.4-4.78-5.19-10.52-5.38-17.25h25.43
				c0.37,3.8,1.62,6.7,3.77,8.7c2.14,2,4.94,3,8.38,3c3.54,0,6.34-0.85,8.38-2.56c2.05-1.7,3.08-4.07,3.08-7.09
				c0-2.53-0.82-4.63-2.45-6.29c-1.63-1.65-3.63-3.02-6.01-4.09c-2.37-1.07-5.75-2.29-10.13-3.65c-6.34-2.05-11.51-4.09-15.51-6.14
				c-4.01-2.05-7.45-5.07-10.34-9.07c-2.89-4-4.33-9.21-4.33-15.65c0-9.55,3.3-17.03,9.92-22.44c6.62-5.41,15.24-8.11,25.85-8.11
				c10.8,0,19.51,2.71,26.13,8.11c6.62,5.41,10.16,12.94,10.62,22.59H577.3c-0.19-3.31-1.35-5.92-3.49-7.82
				c-2.15-1.9-4.89-2.85-8.25-2.85c-2.89,0-5.22,0.8-6.99,2.41c-1.77,1.61-2.65,3.93-2.65,6.95c0,3.31,1.49,5.9,4.47,7.75
				c2.98,1.86,7.63,3.86,13.97,6c6.33,2.24,11.48,4.38,15.44,6.43c3.96,2.05,7.38,5.02,10.27,8.92c2.89,3.9,4.33,8.92,4.33,15.06
				c0,5.85-1.42,11.16-4.27,15.93c-2.84,4.78-6.96,8.58-12.36,11.4c-5.41,2.83-11.79,4.24-19.14,4.24
				C561.47,153.26,555.04,152.04,549.35,149.61z"/>
			<path class="st0" d="M662.54,131.04v21.2h-12.15c-8.66,0-15.42-2.21-20.26-6.65c-4.84-4.44-7.26-11.67-7.26-21.71V91.42h-9.51
				V70.66h9.51V50.77h23.89v19.89h15.65v20.76h-15.65v32.75c0,2.44,0.56,4.19,1.68,5.26c1.12,1.08,2.98,1.61,5.59,1.61H662.54z"/>
			<path class="st0" d="M675.6,89.23c3.03-6.34,7.15-11.21,12.37-14.62c5.22-3.41,11.04-5.12,17.47-5.12
				c5.5,0,10.32,1.17,14.46,3.51c4.15,2.34,7.34,5.41,9.57,9.21V70.66h23.9v81.58h-23.9v-11.55c-2.33,3.8-5.57,6.88-9.71,9.22
				c-4.15,2.34-8.97,3.51-14.47,3.51c-6.34,0-12.11-1.73-17.32-5.19c-5.22-3.46-9.34-8.38-12.37-14.77
				c-3.03-6.38-4.54-13.77-4.54-22.15S672.57,95.56,675.6,89.23z M724.51,96.68c-3.31-3.61-7.34-5.41-12.09-5.41
				c-4.75,0-8.78,1.78-12.08,5.34c-3.31,3.56-4.96,8.45-4.96,14.69c0,6.23,1.65,11.18,4.96,14.84c3.3,3.66,7.34,5.49,12.08,5.49
				c4.75,0,8.78-1.8,12.09-5.41c3.31-3.6,4.96-8.53,4.96-14.77C729.47,105.21,727.82,100.29,724.51,96.68z"/>
			<path class="st0" d="M840.08,79.07c5.45,6.19,8.17,14.69,8.17,25.51v47.66h-23.75v-44.3c0-5.46-1.36-9.7-4.06-12.72
				c-2.7-3.02-6.34-4.53-10.9-4.53c-4.56,0-8.2,1.51-10.9,4.53c-2.7,3.02-4.05,7.26-4.05,12.72v44.3h-23.9V70.66h23.9v10.82
				c2.42-3.61,5.68-6.45,9.78-8.55c4.1-2.1,8.71-3.15,13.84-3.15C827.33,69.78,834.63,72.87,840.08,79.07z"/>
			<path class="st0" d="M864.66,89.23c3.03-6.34,7.15-11.21,12.37-14.62c5.22-3.41,11.04-5.12,17.47-5.12
				c5.12,0,9.8,1.12,14.05,3.36c4.24,2.24,7.57,5.26,9.99,9.07V44.05h23.9v108.19h-23.9v-11.7c-2.24,3.9-5.43,7.02-9.57,9.36
				c-4.15,2.34-8.97,3.51-14.46,3.51c-6.43,0-12.25-1.73-17.47-5.19c-5.22-3.46-9.34-8.38-12.37-14.77
				c-3.03-6.38-4.54-13.77-4.54-22.15S861.63,95.56,864.66,89.23z M913.57,96.68c-3.31-3.61-7.34-5.41-12.09-5.41
				c-4.75,0-8.78,1.78-12.08,5.34c-3.31,3.56-4.96,8.45-4.96,14.69c0,6.23,1.65,11.18,4.96,14.84c3.3,3.66,7.34,5.49,12.08,5.49
				c4.75,0,8.78-1.8,12.09-5.41c3.31-3.6,4.96-8.53,4.96-14.77C918.53,105.21,916.88,100.29,913.57,96.68z"/>
			<path class="st0" d="M959.54,89.23c3.03-6.34,7.15-11.21,12.37-14.62c5.22-3.41,11.04-5.12,17.47-5.12
				c5.5,0,10.32,1.17,14.46,3.51c4.15,2.34,7.34,5.41,9.57,9.21V70.66h23.9v81.58h-23.9v-11.55c-2.33,3.8-5.57,6.88-9.71,9.22
				c-4.15,2.34-8.97,3.51-14.47,3.51c-6.34,0-12.11-1.73-17.32-5.19c-5.22-3.46-9.34-8.38-12.37-14.77
				c-3.03-6.38-4.54-13.77-4.54-22.15S956.52,95.56,959.54,89.23z M1008.45,96.68c-3.31-3.61-7.34-5.41-12.09-5.41
				c-4.75,0-8.78,1.78-12.08,5.34c-3.31,3.56-4.96,8.45-4.96,14.69c0,6.23,1.65,11.18,4.96,14.84c3.3,3.66,7.34,5.49,12.08,5.49
				c4.75,0,8.78-1.8,12.09-5.41c3.31-3.6,4.96-8.53,4.96-14.77C1013.41,105.21,1011.76,100.29,1008.45,96.68z"/>
			<path class="st0" d="M1089.02,73.65c4.19-2.58,8.85-3.87,13.97-3.87v26.46h-6.57c-5.97,0-10.43,1.34-13.42,4.02
				c-2.99,2.68-4.47,7.38-4.47,14.11v37.87h-23.9V70.66h23.9v13.59C1081.33,79.77,1084.82,76.24,1089.02,73.65z"/>
			<path class="st0" d="M1114.23,89.23c3.03-6.34,7.15-11.21,12.37-14.62c5.22-3.41,11.04-5.12,17.47-5.12
				c5.12,0,9.8,1.12,14.05,3.36c4.24,2.24,7.57,5.26,9.99,9.07V44.05h23.9v108.19h-23.9v-11.7c-2.24,3.9-5.43,7.02-9.57,9.36
				c-4.15,2.34-8.97,3.51-14.46,3.51c-6.43,0-12.25-1.73-17.47-5.19c-5.22-3.46-9.34-8.38-12.37-14.77
				c-3.03-6.38-4.54-13.77-4.54-22.15S1111.21,95.56,1114.23,89.23z M1163.14,96.68c-3.31-3.61-7.34-5.41-12.09-5.41
				c-4.75,0-8.78,1.78-12.08,5.34c-3.31,3.56-4.96,8.45-4.96,14.69c0,6.23,1.65,11.18,4.96,14.84c3.3,3.66,7.34,5.49,12.08,5.49
				c4.75,0,8.78-1.8,12.09-5.41c3.31-3.6,4.96-8.53,4.96-14.77C1168.1,105.21,1166.45,100.29,1163.14,96.68z"/>
		</g>
	</g>
</g>
</svg>
